<svg xmlns="http://www.w3.org/2000/svg" width="512" height="512" viewBox="0 0 512 512" version="1.1">
  <defs>
    <linearGradient id="grad1" x1="0%" y1="0%" x2="100%" y2="100%">
      <stop offset="0%" stop-color="#7B2FF7" />
      <stop offset="50%" stop-color="#E1306C" />
      <stop offset="100%" stop-color="#FF6F00" />
    </linearGradient>
  </defs>
  
  <circle cx="256" cy="256" r="256" fill="url(#grad1)" />
  
  <path d="M 211 74.238 C 211 74.493, 209.686 79.832, 208.080 86.101 C 199.740 118.653, 188.109 164.353, 180.161 195.797 C 175.254 215.211, 171.003 231.330, 170.715 231.618 C 170.427 231.906, 167.111 231.237, 163.346 230.132 C 155.980 227.970, 133.487 222, 132.707 222 C 132.446 222, 132.021 223.012, 131.761 224.250 C 131.501 225.488, 129.624 232.753, 127.589 240.395 C 125.555 248.038, 124.253 254.633, 124.695 255.053 C 125.138 255.472, 133.375 257.962, 143 260.587 C 152.625 263.212, 160.618 265.434, 160.762 265.525 C 160.906 265.616, 159.831 270.147, 158.374 275.595 C 156.917 281.043, 155.511 286.738, 155.249 288.250 C 154.987 289.762, 154.123 291, 153.329 291 C 152.536 291, 144.852 289.200, 136.255 287 C 116.915 282.051, 116.360 282.031, 115.484 286.250 C 115.113 288.038, 113.278 294.886, 111.405 301.468 C 109.532 308.051, 108 313.757, 108 314.147 C 108 314.851, 110.524 315.629, 127 320 C 131.675 321.240, 137.804 322.888, 140.620 323.661 L 145.740 325.066 140.458 345.783 C 137.552 357.177, 133.954 371.131, 132.462 376.792 C 130.970 382.452, 129.924 387.257, 130.137 387.471 C 131.078 388.411, 174.570 398.714, 175.177 398.140 C 175.550 397.788, 179.085 384.475, 183.033 368.556 C 186.981 352.637, 190.436 339.028, 190.710 338.313 C 190.993 337.576, 192.136 337.218, 193.354 337.486 C 194.534 337.746, 203.375 339.806, 213 342.064 C 222.625 344.322, 235.900 347.436, 242.500 348.982 C 249.100 350.529, 259.611 353.007, 265.858 354.489 C 272.105 355.971, 277.583 356.805, 278.031 356.342 C 278.789 355.559, 284.012 334.983, 285.497 326.931 L 286.155 323.362 274.327 320.584 C 262.761 317.868, 256.125 316.292, 221.500 308.036 C 212.150 305.806, 203.447 303.742, 202.159 303.449 C 200.858 303.153, 200.026 302.374, 200.287 301.695 C 200.545 301.023, 202.048 295.197, 203.628 288.748 C 205.364 281.661, 206.990 277.018, 207.739 277.011 C 208.420 277.005, 220.795 279.873, 235.239 283.384 C 273.113 292.590, 278.541 293.837, 288.001 295.502 C 299.283 297.487, 318.684 297.432, 328.643 295.386 C 337.457 293.575, 353.184 287.960, 360 284.190 C 387.259 269.114, 402.589 244.020, 408.527 204.757 C 414.271 166.769, 403.400 139.111, 375.500 120.728 C 356.930 108.493, 342.178 103.182, 304 94.990 C 297.541 93.604, 277.631 89.051, 262.500 85.501 C 254.250 83.566, 240.525 80.346, 232 78.347 C 214.651 74.278, 211 73.563, 211 74.238 M 245.512 124.225 C 245.156 125.248, 235.369 164.800, 217.500 237.436 C 216.697 240.701, 216.143 243.458, 216.270 243.561 C 216.396 243.665, 221.675 244.967, 228 246.455 C 234.325 247.943, 244.900 250.434, 251.500 251.990 C 294.232 262.066, 307.085 262.786, 323.330 256.012 C 353.384 243.479, 372.344 195.769, 358.981 166.299 C 355.191 157.940, 347.397 150.191, 338.757 146.192 C 327.596 141.026, 323.139 139.802, 290.500 132.932 C 285.550 131.890, 279.587 130.580, 277.250 130.019 C 274.913 129.459, 271.087 128.570, 268.750 128.044 C 266.413 127.518, 261.350 126.379, 257.500 125.512 C 253.650 124.645, 249.478 123.715, 248.228 123.444 C 246.900 123.156, 245.772 123.480, 245.512 124.225" stroke="none" fill="#fbfbfb" fill-rule="evenodd"/>

</svg>
